# xmcd CD database file
#
# Track frame offsets:
#	150
#	22168
#	46857
#	68874
#	104775
#	332550
#
# Disc length: 4440 seconds
#
# Revision: 0
# Processed by: cddbd v1.5.1PL0 Copyright (c) Steve Scherf et al.
# Submitted via: CDex 1.51
#
DISCID=53115606
DTITLE=Younha - ゆびきり
DYEAR=2004
DGENRE=JPop
TTITLE0=ゆびきり
TTITLE1=If
TTITLE2=ゆびきり -instrumental version-
TTITLE3=If -instrumental version-
TTITLE4=LGCD2
TTITLE5=LGCD2
EXTD=YEAR: 2004
EXTT0=
EXTT1=
EXTT2=
EXTT3=
EXTT4=
EXTT5=
PLAYORDER=
